<?xml version="1.0" encoding="utf-8"?>
<!-- Generator: Adobe Illustrator 24.3.0, SVG Export Plug-In . SVG Version: 6.00 Build 0)  -->
<svg version="1.1" id="Layer_1" xmlns="http://www.w3.org/2000/svg" xmlns:xlink="http://www.w3.org/1999/xlink" x="0px" y="0px"
	 viewBox="0 0 16 16" style="enable-background:new 0 0 16 16;" xml:space="preserve">
<style type="text/css">
	.st0{fill:#FFFFFF;}
</style>
<path class="st0" d="M8,15c-3.9,0-7-3.1-7-7s3.1-7,7-7s7,3.1,7,7S11.9,15,8,15z M8,16c4.4,0,8-3.6,8-8s-3.6-8-8-8S0,3.6,0,8
	S3.6,16,8,16z"/>
<path class="st0" d="M8,13c-2.8,0-5-2.2-5-5s2.2-5,5-5s5,2.2,5,5S10.8,13,8,13z M8,14c3.3,0,6-2.7,6-6s-2.7-6-6-6S2,4.7,2,8
	S4.7,14,8,14z"/>
<path class="st0" d="M8,11c-1.7,0-3-1.3-3-3s1.3-3,3-3s3,1.3,3,3S9.7,11,8,11z M8,12c2.2,0,4-1.8,4-4s-1.8-4-4-4S4,5.8,4,8
	S5.8,12,8,12z"/>
<path class="st0" d="M9.5,8c0,0.8-0.7,1.5-1.5,1.5S6.5,8.8,6.5,8S7.2,6.5,8,6.5S9.5,7.2,9.5,8z"/>
</svg>
